JoggingL1_filt_ID_aligned.mot
version=1
datacolumns 20
datarows 25
range 0.790000 1.030000
inDegrees=yes
endheader
time	pelvis_tilt	pelvis_list	pelvis_rotation	hip_flexion_r	hip_adduction_r	hip_rotation_r	knee_angle_r	ankle_angle_r	hip_flexion_l	hip_adduction_l	hip_rotation_l	knee_angle_l	ankle_angle_l	pelvis_tx	pelvis_ty	pelvis_tz	lumbar_bending	lumbar_rotation	lumbar_extension
0.790000	14.626764	2.131347	-182.368211	9.242925	1.838680	-6.335852	-27.714418	5.849578	40.145953	-4.425533	-1.519735	-27.770775	7.969890	-0.110375	0.959932	-0.037742	5.743305	-0.066383	3.779788
0.800000	14.118890	2.625371	-182.237501	7.435839	2.245516	-6.306186	-27.274223	3.176293	39.104244	-4.229659	-0.756063	-23.448677	7.159213	-0.131448	0.962881	-0.037939	5.952957	0.187276	3.547296
0.810000	13.674466	3.116777	-182.153550	5.888738	2.638758	-6.170197	-27.098663	0.464830	38.147518	-4.109377	0.020685	-19.511621	6.496904	-0.152557	0.965237	-0.038104	6.137083	0.455522	3.353361
0.820000	13.300823	3.594384	-182.113947	4.613579	3.000815	-5.932015	-27.203675	-2.168725	37.304075	-4.051628	0.770758	-16.038699	6.039302	-0.173686	0.966950	-0.038241	6.297808	0.719374	3.211017
0.830000	13.001834	4.053453	-182.114150	3.614033	3.318110	-5.611438	-27.589209	-4.655011	36.595501	-4.045611	1.457038	-13.093144	5.800914	-0.194817	0.967978	-0.038349	6.439939	0.967032	3.132312
0.840000	12.780691	4.491942	-182.149986	2.890349	3.578140	-5.250417	-28.240651	-6.998799	36.037580	-4.083015	2.049513	-10.716392	5.737272	-0.215929	0.968293	-0.038427	6.568283	1.193524	3.127333
0.850000	12.634283	4.905494	-182.217471	2.435074	3.764696	-4.903234	-29.137860	-9.252821	35.634287	-4.154388	2.528221	-8.928272	5.752662	-0.236999	0.967873	-0.038476	6.683975	1.396997	3.195981
0.860000	12.542599	5.282287	-182.311042	2.223237	3.852523	-4.612106	-30.266841	-11.463010	35.368937	-4.243611	2.884956	-7.733590	5.722867	-0.257993	0.966700	-0.038501	6.782408	1.572651	3.316806
0.870000	12.471964	5.601735	-182.423656	2.218003	3.807937	-4.393203	-31.630329	-13.621346	35.212221	-4.326679	3.121603	-7.133705	5.526361	-0.278858	0.964769	-0.038506	6.854860	1.708182	3.451241
0.880000	12.398674	5.838832	-182.548720	2.398320	3.597987	-4.247427	-33.252986	-15.654109	35.152869	-4.376154	3.246111	-7.139149	5.081036	-0.299538	0.962096	-0.038499	6.891446	1.783618	3.568929
0.890000	12.327024	5.971305	-182.680446	2.778923	3.202063	-4.173922	-35.176535	-17.450048	35.219901	-4.367321	3.271160	-7.774814	4.373707	-0.319974	0.958729	-0.038487	6.882455	1.776000	3.667459
0.900000	12.281472	5.986456	-182.810937	3.400277	2.619658	-4.167491	-37.446446	-18.895968	35.471731	-4.282923	3.215544	-9.071364	3.470003	-0.340094	0.954745	-0.038481	6.817806	1.667658	3.765977
0.910000	12.284827	5.885426	-182.928083	4.301717	1.872253	-4.212737	-40.095531	-19.898497	35.963446	-4.116372	3.103357	-11.045080	2.509139	-0.359801	0.950247	-0.038496	6.687677	1.454069	3.884207
0.920000	12.346415	5.683238	-183.019039	5.503999	0.999970	-4.292046	-43.128514	-20.401582	36.719541	-3.873689	2.958185	-13.674092	1.690095	-0.378989	0.945351	-0.038546	6.486511	1.146704	4.030315
0.930000	12.466426	5.404613	-183.077326	7.009068	0.054352	-4.397350	-46.511754	-20.393758	37.724084	-3.572913	2.794728	-16.879219	1.238557	-0.397577	0.940185	-0.038642	6.217897	0.769662	4.203985
0.940000	12.641860	5.077320	-183.107073	8.803172	-0.911196	-4.528030	-50.169879	-19.894575	38.919637	-3.239766	2.614914	-20.516828	1.352456	-0.415539	0.934890	-0.038792	5.895967	0.352673	4.400913
0.950000	12.865561	4.726034	-183.120455	10.854775	-1.850911	-4.679570	-53.990066	-18.933770	40.210518	-2.900120	2.411556	-24.389597	2.148973	-0.432905	0.929625	-0.038998	5.540874	-0.076102	4.611087
0.960000	13.124567	4.368941	-183.130835	13.114051	-2.732783	-4.837300	-57.834811	-17.541160	41.476601	-2.572814	2.173688	-28.274829	3.633353	-0.449760	0.924568	-0.039248	5.171086	-0.495181	4.817596
0.970000	13.401073	4.017864	-183.146848	15.517827	-3.539086	-4.979864	-61.561363	-15.751647	42.596006	-2.267401	1.890062	-31.961566	5.696305	-0.466213	0.919897	-0.039522	4.798011	-0.891274	4.999397
0.980000	13.673064	3.681217	-183.170022	17.996294	-4.262056	-5.088303	-65.041838	-13.616801	43.466541	-1.987665	1.552733	-35.284261	8.138670	-0.482379	0.915771	-0.039791	4.425492	-1.256928	5.134783
0.990000	13.918072	3.367952	-183.197114	20.483533	-4.896863	-5.155163	-68.178254	-11.212981	44.023281	-1.738888	1.160173	-38.144168	10.715582	-0.498350	0.912303	-0.040029	4.053686	-1.586148	5.208018
1.000000	14.122443	3.090371	-183.225141	22.931652	-5.434972	-5.187734	-70.907793	-8.643786	44.251286	-1.534357	0.719470	-40.514538	13.191265	-0.514194	0.909542	-0.040222	3.683809	-1.870469	5.220040
1.010000	14.285727	2.863384	-183.254339	25.315053	-5.862606	-5.201032	-73.196796	-6.036006	44.181414	-1.394813	0.247357	-42.427454	15.388659	-0.529958	0.907475	-0.040375	3.319529	-2.098185	5.191578
1.020000	14.415558	2.700216	-183.288266	27.620592	-6.164634	-5.204923	-75.027350	-3.526061	43.867521	-1.340875	-0.233419	-43.946512	17.216035	-0.545686	0.906054	-0.040510	2.965809	-2.257436	5.153961
1.030000	14.523972	2.608138	-183.333103	29.838257	-6.328593	-5.197589	-76.383912	-1.235733	43.363900	-1.385079	-0.702617	-45.136669	18.665435	-0.561433	0.905234	-0.040666	2.628083	-2.339865	5.140101
